<?xml version="1.0" encoding="UTF-8" standalone="no"?>
<svg xmlns="http://www.w3.org/2000/svg" width="400" height="300" viewBox="0 0 400 300">
  <!-- Background shape -->
  <rect x="50" y="50" width="300" height="200" rx="20" ry="20" fill="#333" stroke="#fff" stroke-width="5"/>
  
  <!-- Lawn mower body -->
  <rect x="115" y="120" width="170" height="80" rx="15" ry="15" fill="#4CAF50" stroke="#333" stroke-width="3"/>
  
  <!-- Mower details -->
  <rect x="125" y="140" width="150" height="40" rx="5" ry="5" fill="#388E3C" stroke="#333" stroke-width="2"/>
  
  <!-- Mower seat -->
  <rect x="195" y="100" width="30" height="40" rx="5" ry="5" fill="#212121" stroke="#333" stroke-width="2"/>
  
  <!-- Wheels -->
  <circle cx="135" cy="210" r="20" fill="#555" stroke="#333" stroke-width="3"/>
  <circle cx="265" cy="210" r="20" fill="#555" stroke="#333" stroke-width="3"/>
  
  <!-- Medical cross emblem -->
  <rect x="125" y="150" width="30" height="30" fill="#F44336" stroke="#fff" stroke-width="2"/>
  <rect x="135" y="155" width="10" height="20" fill="#fff"/>
  <rect x="130" y="160" width="20" height="10" fill="#fff"/>
  
  <!-- Emergency light bar -->
  <rect x="185" y="95" width="50" height="10" rx="5" ry="5" fill="#333" stroke="#fff" stroke-width="1"/>
  <circle cx="195" cy="100" r="5" fill="#F44336"/>
  <circle cx="210" cy="100" r="5" fill="#fff"/>
  <circle cx="225" cy="100" r="5" fill="#03A9F4"/>
  
  <!-- Grass -->
  <path d="M 80,210 C 90,190 100,205 110,190 C 120,205 130,190 140,205 C 150,190 160,205 170,190 C 180,205 190,190 200,205 C 210,190 220,205 230,190 C 240,205 250,190 260,205 C 270,190 280,205 290,190 L 290,210 Z" fill="#8BC34A" stroke="#333" stroke-width="2"/>
  
  <!-- Text -->
  <text x="200" y="250" font-family="Arial Black, sans-serif" font-size="24" text-anchor="middle" fill="#F44336" stroke="#333" stroke-width="1">EXTERIOR911</text>
  <text x="200" y="275" font-family="Arial, sans-serif" font-size="14" text-anchor="middle" fill="#fff">LAWN CARE AND LANDSCAPING</text>
</svg>
